<?xml version="1.0" standalone="no"?><!DOCTYPE svg PUBLIC "-//W3C//DTD SVG 1.1//EN" "http://www.w3.org/Graphics/SVG/1.1/DTD/svg11.dtd"><svg t="1547631384895" class="icon" style="" viewBox="0 0 1332 1024" version="1.1" xmlns="http://www.w3.org/2000/svg" p-id="3071" xmlns:xlink="http://www.w3.org/1999/xlink" width="260.15625" height="200"><defs><style type="text/css"></style></defs><path d="M407.556511 774.956201a35.225282 35.225282 0 0 1 14.090113-22.191928 35.225282 35.225282 0 0 0-35.225282-60.939738 105.675846 105.675846 0 0 0-46.497372 66.22353 161.331791 161.331791 0 0 0 33.464018 126.458762 35.225282 35.225282 0 0 1 8.101814 30.998248 84.188424 84.188424 0 0 1-35.225281 42.270338 35.225282 35.225282 0 0 0 15.146871 63.757761 39.452316 39.452316 0 0 0 17.260388-4.579287 153.934482 153.934482 0 0 0 70.450564-87.710952 108.141615 108.141615 0 0 0-18.6694-87.006446 101.096559 101.096559 0 0 1-22.896433-67.280288zM959.88893 774.956201a35.225282 35.225282 0 0 1 14.090113-22.191928 35.225282 35.225282 0 0 0-35.225282-60.939738 105.675846 105.675846 0 0 0-46.497372 66.22353 161.331791 161.331791 0 0 0 35.225282 126.458762 35.225282 35.225282 0 0 1 8.101815 30.998248 84.188424 84.188424 0 0 1-35.225282 42.270338 35.225282 35.225282 0 0 0-13.73786 48.258637 35.225282 35.225282 0 0 0 30.998248 17.964893 39.452316 39.452316 0 0 0 17.260388-4.579286 155.343493 155.343493 0 0 0 70.450564-87.710952 108.141615 108.141615 0 0 0-18.6694-87.006446 101.096559 101.096559 0 0 1-26.771214-69.746058zM683.722721 774.956201a35.225282 35.225282 0 0 1 14.090112-22.191928 35.225282 35.225282 0 0 0-35.225281-60.939738 105.675846 105.675846 0 0 0-46.497373 66.22353 161.331791 161.331791 0 0 0 35.225282 126.458762 35.225282 35.225282 0 0 1 8.101815 30.998248 84.188424 84.188424 0 0 1-35.225282 42.270338A35.225282 35.225282 0 0 0 637.577601 1021.533174a39.452316 39.452316 0 0 0 17.260389-4.579287 155.343493 155.343493 0 0 0 70.450563-87.710952 108.141615 108.141615 0 0 0-18.669399-87.006446 101.096559 101.096559 0 0 1-22.896433-67.280288z" fill="#dbdbdb" p-id="3072"></path><path d="M1141.299132 239.179664m-52.837923 0a52.837923 52.837923 0 1 0 105.675846 0 52.837923 52.837923 0 1 0-105.675846 0Z" fill="#dbdbdb" p-id="3073"></path><path d="M1224.78305 0H105.675846a105.675846 105.675846 0 0 0-105.675846 105.675846v428.69168a105.675846 105.675846 0 0 0 105.675846 105.675845h1119.107204a105.675846 105.675846 0 0 0 105.675845-105.675845V105.675846a105.675846 105.675846 0 0 0-105.675845-105.675846zM105.675846 70.450564h1119.107204a35.225282 35.225282 0 0 1 35.225282 35.225282v281.802254H70.450564V105.675846a35.225282 35.225282 0 0 1 35.225282-35.225282z m1119.107204 499.142243H105.675846a35.225282 35.225282 0 0 1-35.225282-35.225281V457.928664h1189.557768v77.847873a35.225282 35.225282 0 0 1-35.225282 33.81627z" fill="#dbdbdb" p-id="3074"></path></svg>