<?xml version="1.0" standalone="no"?><!DOCTYPE svg PUBLIC "-//W3C//DTD SVG 1.1//EN" "http://www.w3.org/Graphics/SVG/1.1/DTD/svg11.dtd"><svg t="1547631495094" class="icon" style="" viewBox="0 0 1024 1024" version="1.1" xmlns="http://www.w3.org/2000/svg" p-id="9286" xmlns:xlink="http://www.w3.org/1999/xlink" width="200" height="200"><defs><style type="text/css"></style></defs><path d="M488.72 0v46.56h-46.56v46.56h139.68V46.56h-46.56L537.701 0zM139.518 884.645H471.12L373.204 1024h46.98l97.915-139.355h18.578L634.547 1024h46.979l-97.823-139.355h300.78s23.28 4.144 23.28-21.185c0-25.375-23.28-25.375-23.28-25.375H139.517s-23.28 0-23.28 25.329c0 25.375 23.28 21.231 23.28 21.231z m-23.28-651.844v465.603c0 93.12 93.12 93.12 93.12 93.12h605.284s93.12 0 93.12-93.12V232.801c0-93.12-93.12-93.12-93.12-93.12H209.358s-93.12 0-93.12 93.12z m744.964 0v465.603c0 46.56-46.56 46.56-46.56 46.56H209.358s-46.56 0-46.56-46.56V232.801c0-46.56 46.56-46.56 46.56-46.56h605.284s46.56 0 46.56 46.56z" p-id="9287" fill="#2c2c2c"></path></svg>