<?xml version="1.0" standalone="no"?><!DOCTYPE svg PUBLIC "-//W3C//DTD SVG 1.1//EN" "http://www.w3.org/Graphics/SVG/1.1/DTD/svg11.dtd"><svg t="1547638640899" class="icon" style="" viewBox="0 0 1024 1024" version="1.1" xmlns="http://www.w3.org/2000/svg" p-id="21472" xmlns:xlink="http://www.w3.org/1999/xlink" width="200" height="200"><defs><style type="text/css"></style></defs><path d="M904 1024H120C53.8 1024 0 970.2 0 904V200C0 133.8 53.8 80 120 80h784c66.2 0 120 53.8 120 120v704c0 66.2-53.8 120-120 120zM120 160c-22.1 0-40 17.9-40 40v704c0 22.1 17.9 40 40 40h784c22.1 0 40-17.9 40-40V200c0-22.1-17.9-40-40-40H120z" fill="" p-id="21473"></path><path d="M984 408H40c-22.1 0-40-17.9-40-40s17.9-40 40-40h944c22.1 0 40 17.9 40 40s-17.9 40-40 40zM256 240c-22.1 0-40-17.9-40-40V40c0-22.1 17.9-40 40-40s40 17.9 40 40v160c0 22.1-17.9 40-40 40zM768 240c-22.1 0-40-17.9-40-40V40c0-22.1 17.9-40 40-40s40 17.9 40 40v160c0 22.1-17.9 40-40 40zM413.4 876.1h-0.2c-40.8-0.7-72.3-11.3-93.6-31.6-21.5-20.4-32.7-50.5-33.4-89.6 0-2.7 1-5.3 2.9-7.2 1.9-1.9 4.5-3 7.1-3H347c5.5 0 10 4.5 10 10 0 20.7 4.7 36.1 13.9 45.9 9 9.6 23.3 14.4 42.4 14.4 35.1-1.2 53.7-17.4 58.5-51.1-1.4-42.2-23.7-62.5-70.2-63.7H386c-5.5 0-10-4.5-10-10v-43c0-2.8 1.2-5.5 3.3-7.4 2.1-1.9 4.9-2.8 7.7-2.6 28.6 2.7 48.7-1.3 59.8-11.7 8-7.5 11.7-18.8 11.3-34.4-2.3-24.5-16.5-37.1-44.9-39.4-31 1.3-45.3 15.8-46.4 47-0.2 5.4-4.6 9.6-10 9.6H306c-5.5 0-10-4.5-10-10 0-35.4 10.6-62.8 31.6-81.7 20.6-18.5 51.3-28.5 91.3-29.9 0.5 0 0.9 0 1.4 0.1 32.6 3.5 58.4 13.7 76.5 30.4 18.4 16.9 29.2 40.6 32 70.4 0.1 0.6 0.1 1.2 0 1.8-2.1 25.8-8.3 46.2-18.4 60.6-5.3 7.6-11.7 13.7-19.2 18.1 12.2 6.4 22.4 15.1 30.3 25.9 12.5 17.1 19.6 40 21 67.9v1.1c-2.1 35.8-14.3 63.6-36.1 82.6-21.5 18.7-52.7 28.9-92.6 30.3-0.2 0.2-0.3 0.2-0.4 0.2zM727.8 874.2H677c-5.5 0-10-4.5-10-10V553.9h-52.5c-5.5 0-10-4.5-10-10v-41c0-5.5 4.5-10 10-10h113.3c5.5 0 10 4.5 10 10v361.3c0 5.5-4.5 10-10 10z" fill="" p-id="21474"></path></svg>