<?xml version="1.0" standalone="no"?><!DOCTYPE svg PUBLIC "-//W3C//DTD SVG 1.1//EN" "http://www.w3.org/Graphics/SVG/1.1/DTD/svg11.dtd"><svg t="1547631543941" class="icon" style="" viewBox="0 0 1042 1024" version="1.1" xmlns="http://www.w3.org/2000/svg" p-id="10863" xmlns:xlink="http://www.w3.org/1999/xlink" width="203.515625" height="200"><defs><style type="text/css"></style></defs><path d="M1005.056 453.12H39.424l140.8-312.832h699.392l125.44 312.832z m-925.696-25.6h887.808l-104.448-261.632h-665.6l-117.76 261.632z" fill="#dbdbdb" p-id="10864"></path><path d="M1042.944 478.72H0l163.84-364.032h733.184l145.92 364.032z m-924.16-76.8h810.496l-83.968-210.432H213.504L118.784 401.92z" fill="#dbdbdb" p-id="10865"></path><path d="M131.072 449.536h28.672v488.448H131.072z" fill="#dbdbdb" p-id="10866"></path><path d="M105.472 423.936h79.872v539.648H105.472zM878.592 449.536h28.672v488.448H878.592z" fill="#dbdbdb" p-id="10867"></path><path d="M852.992 423.936h79.872v539.648H852.992z" fill="#dbdbdb" p-id="10868"></path><path d="M248.32 430.592h28.672v437.76h-28.672z" fill="#dbdbdb" p-id="10869"></path><path d="M222.72 404.992h79.872v488.96H222.72z" fill="#dbdbdb" p-id="10870"></path><path d="M757.248 430.592h28.672v437.76h-28.672z" fill="#dbdbdb" p-id="10871"></path><path d="M731.648 404.992h79.872v488.96h-79.872z" fill="#dbdbdb" p-id="10872"></path></svg>