<?xml version="1.0" standalone="no"?><!DOCTYPE svg PUBLIC "-//W3C//DTD SVG 1.1//EN" "http://www.w3.org/Graphics/SVG/1.1/DTD/svg11.dtd"><svg t="1547631563625" class="icon" style="" viewBox="0 0 1024 1024" version="1.1" xmlns="http://www.w3.org/2000/svg" p-id="11958" xmlns:xlink="http://www.w3.org/1999/xlink" width="200" height="200"><defs><style type="text/css"></style></defs><path d="M369 507.5c69.036 0 125-55.964 125-125s-55.964-125-125-125-125 55.964-125 125 55.964 125 125 125z m0-200c41.355 0 75 33.645 75 75s-33.645 75-75 75-75-33.645-75-75 33.645-75 75-75z" p-id="11959" fill="#dbdbdb"></path><path d="M890 382.5H594c0-124.264-100.736-225-225-225s-225 100.736-225 225h-10c-38.66 0-70 31.34-70 70v244c0 38.66 31.34 70 70 70h30v30c0 38.66 31.34 70 70 70s70-31.34 70-70v-30h416v30c0 38.66 31.34 70 70 70s70-31.34 70-70v-30h30c38.66 0 70-31.34 70-70v-244c0-38.66-31.34-70-70-70zM245.256 258.756c33.053-33.053 77-51.256 123.744-51.256s90.691 18.203 123.744 51.256S544 335.756 544 382.5a178.354 178.354 0 0 1-0.847 17.382c-3.936 40.178-21.488 77.44-50.41 106.361-10.329 10.329-21.722 19.208-33.932 26.534a174.24 174.24 0 0 1-15.027 8.04 172.767 172.767 0 0 1-18.359 7.418 173.577 173.577 0 0 1-9.541 2.947 174.372 174.372 0 0 1-20.938 4.419 176.637 176.637 0 0 1-17.215 1.685 179.613 179.613 0 0 1-17.46 0 177.1 177.1 0 0 1-8.652-0.634c-40.178-3.936-77.44-21.488-106.362-50.41-28.921-28.921-46.474-66.183-50.41-106.361-0.281-2.87-0.493-5.755-0.634-8.652a179.613 179.613 0 0 1-0.213-8.73c0-46.743 18.203-90.69 51.256-123.743zM254 796.5c0 11.028-8.972 20-20 20s-20-8.972-20-20v-30h40v30z m556 0c0 11.028-8.972 20-20 20s-20-8.972-20-20v-30h40v30z m100-100c0 11.028-8.972 20-20 20H134c-11.028 0-20-8.972-20-20v-244c0-11.028 8.972-20 20-20h15.543c8.468 37.504 26.471 72.193 52.781 101.142 0.129 0.143 0.261 0.284 0.39 0.426a222.2 222.2 0 0 0 2.93 3.147c0.273 0.288 0.545 0.577 0.82 0.864a234.475 234.475 0 0 0 3.381 3.462 226.598 226.598 0 0 0 3.968 3.875 233.688 233.688 0 0 0 3.615 3.366c0.1 0.091 0.197 0.185 0.298 0.277 37.121 33.79 83.701 53.891 133.554 57.75 0.156 0.012 0.311 0.028 0.467 0.04 1.594 0.12 3.193 0.217 4.794 0.304 0.324 0.018 0.646 0.043 0.97 0.059 1.506 0.075 3.016 0.126 4.527 0.172 0.409 0.012 0.815 0.034 1.224 0.045a228.284 228.284 0 0 0 11.476 0c0.409-0.01 0.815-0.032 1.224-0.045 1.511-0.046 3.022-0.097 4.528-0.172 0.324-0.016 0.645-0.041 0.969-0.059 1.601-0.087 3.2-0.184 4.795-0.304 0.156-0.012 0.311-0.028 0.467-0.04 49.853-3.859 96.434-23.959 133.554-57.75 0.1-0.091 0.198-0.185 0.298-0.277a224.256 224.256 0 0 0 7.583-7.241 234.475 234.475 0 0 0 3.381-3.462c0.275-0.287 0.547-0.576 0.82-0.864 0.988-1.041 1.964-2.09 2.93-3.147 0.13-0.142 0.261-0.283 0.39-0.426 26.311-28.949 44.313-63.638 52.781-101.142H890c11.028 0 20 8.972 20 20v244z" p-id="11960" fill="#dbdbdb"></path><path d="M825 499.5H675c-13.807 0-25 11.193-25 25s11.193 25 25 25h150c13.807 0 25-11.193 25-25s-11.193-25-25-25zM825 599.5H675c-13.807 0-25 11.193-25 25s11.193 25 25 25h150c13.807 0 25-11.193 25-25s-11.193-25-25-25z" p-id="11961" fill="#dbdbdb"></path></svg>