<?xml version="1.0" standalone="no"?><!DOCTYPE svg PUBLIC "-//W3C//DTD SVG 1.1//EN" "http://www.w3.org/Graphics/SVG/1.1/DTD/svg11.dtd"><svg t="1547638680363" class="icon" style="" viewBox="0 0 1024 1024" version="1.1" xmlns="http://www.w3.org/2000/svg" p-id="22265" xmlns:xlink="http://www.w3.org/1999/xlink" width="200" height="200"><defs><style type="text/css"></style></defs><path d="M140.595 923.42h154.29v-154.29h-154.29v154.29zM329.145 923.42h171.42v-154.29h-171.42v154.29zM140.595 734.87h154.29v-171.42h-154.29v171.42zM329.145 734.87h171.42v-171.42h-171.42v171.42zM140.595 529.13h154.29v-154.29h-154.29v154.29zM534.885 923.42h171.42v-154.29h-171.42v154.29zM329.145 529.13h171.42v-154.29h-171.42v154.29zM740.595 923.42h154.29v-154.29h-154.29v154.29zM534.885 734.87h171.42v-171.42h-171.42v171.42zM346.305 272v-154.29q0-6.96-5.1-12.060t-12.060-5.1h-34.29q-6.96 0-12.060 5.1t-5.1 12.060v154.29q0 6.96 5.1 12.060t12.060 5.1h34.29q6.96 0 12.060-5.1t5.1-12.060zM740.595 734.87h154.29v-171.42h-154.29v171.42zM534.885 529.13h171.42v-154.29h-171.42v154.29zM740.595 529.13h154.29v-154.29h-154.29v154.29zM757.725 272v-154.29q0-6.96-5.1-12.060t-12.060-5.1h-34.29q-6.96 0-12.060 5.1t-5.1 12.060v154.29q0 6.96 5.1 12.060t12.060 5.1h34.29q6.96 0 12.060-5.1t5.1-12.060zM963.435 237.71v685.71q0 27.87-20.37 48.21t-48.21 20.37h-754.29q-27.87 0-48.21-20.37t-20.37-48.21v-685.71q0-27.87 20.37-48.21t48.21-20.37h68.58v-51.42q0-35.37 25.17-60.54t60.54-25.17h34.29q35.37 0 60.54 25.17t25.17 60.54v51.42h205.71v-51.42q0-35.37 25.17-60.54t60.54-25.17h34.29q35.37 0 60.54 25.17t25.17 60.54v51.42h68.58q27.87 0 48.21 20.37t20.37 48.21z" p-id="22266"></path></svg>