<?xml version="1.0" standalone="no"?><!DOCTYPE svg PUBLIC "-//W3C//DTD SVG 1.1//EN" "http://www.w3.org/Graphics/SVG/1.1/DTD/svg11.dtd"><svg t="1547631694019" class="icon" style="" viewBox="0 0 1174 1024" version="1.1" xmlns="http://www.w3.org/2000/svg" p-id="20511" xmlns:xlink="http://www.w3.org/1999/xlink" width="229.296875" height="200"><defs><style type="text/css"></style></defs><path d="M1046.191846 220.689655 190.694223 220.689655c-59.060083 0-106.936673 47.878003-106.936673 106.936673L83.75755 915.780855c0 59.060083 47.878003 106.936673 106.936673 106.936673l855.497622 0c59.060083 0 106.936673-47.878003 106.936673-106.936673L1153.128519 327.627741C1153.128519 268.567658 1105.250516 220.689655 1046.191846 220.689655zM1099.660182 889.046687c0 44.294709-35.907796 80.202505-80.202505 80.202505L217.428392 969.249192c-44.294709 0-80.202505-35.907796-80.202505-80.202505L137.225887 354.361909c0-44.294709 35.907796-80.202505 80.202505-80.202505l802.027873 0c44.294709 0 80.202505 35.907796 80.202505 80.202505L1099.65877 889.046687zM1008.151305 36.159206 607.137368 220.689655 739.166985 220.689655 1030.762637 84.612061ZM213.877583 33.653583 191.088287 83.136088 481.977732 220.691068 607.867586 220.689655ZM671.912077 327.627741 297.630897 327.627741c-59.060083 0-106.936673 47.878003-106.936673 106.936673l0 374.279768c0 59.060083 47.878003 106.936673 106.936673 106.936673l374.279768 0c59.060083 0 106.936673-47.878003 106.936673-106.936673L778.847338 434.564414C778.84875 375.504331 730.970748 327.627741 671.912077 327.627741zM725.380414 782.110014c0 44.294709-35.907796 80.202505-80.202505 80.202505L324.365065 862.312519c-44.294709 0-80.202505-35.907796-80.202505-80.202505L244.16256 461.298582c0-44.294709 35.907796-80.202505 80.202505-80.202505L645.176497 381.096077c44.294709 0 80.202505 35.907796 80.202505 80.202505L725.379001 782.110014zM939.25376 327.627741c-59.060083 0-106.936673 47.878003-106.936673 106.936673 0 59.060083 47.878003 106.936673 106.936673 106.936673s106.936673-47.878003 106.936673-106.936673C1046.191846 375.504331 998.313843 327.627741 939.25376 327.627741zM939.25376 488.03275c-29.529335 0-53.468337-23.939001-53.468337-53.468337 0-29.529335 23.939001-53.468337 53.468337-53.468337s53.468337 23.939001 53.468337 53.468337C992.723509 464.093749 968.784508 488.03275 939.25376 488.03275zM832.317087 835.57835l213.874759 0 0 53.468337-213.874759 0 0-53.468337ZM832.317087 728.641677l213.874759 0 0 53.468337-213.874759 0 0-53.468337Z" p-id="20512" fill="#dbdbdb"></path></svg>